<svg width="59" height="58" viewBox="0 0 59 58" fill="none" xmlns="http://www.w3.org/2000/svg">
<g clip-path="url(#clip0_214_316)">
<path d="M58.1799 29C58.1799 12.9838 45.1961 0 29.1799 0C13.1638 0 0.179932 12.9838 0.179932 29C0.179932 43.4746 10.7849 55.4722 24.6487 57.6477V37.3828H17.2854V29H24.6487V22.6109C24.6487 15.3428 28.9783 11.3281 35.6025 11.3281C38.7753 11.3281 42.094 11.8945 42.094 11.8945V19.0312H38.4373C34.8347 19.0312 33.7112 21.2667 33.7112 23.5602V29H41.7542L40.4684 37.3828H33.7112V57.6477C47.575 55.4722 58.1799 43.4748 58.1799 29Z" fill="#1877F2"/>
<path d="M40.4684 37.3828L41.7542 29H33.7112V23.5602C33.7112 21.2665 34.8347 19.0312 38.4373 19.0312H42.094V11.8945C42.094 11.8945 38.7753 11.3281 35.6023 11.3281C28.9783 11.3281 24.6487 15.3428 24.6487 22.6109V29H17.2854V37.3828H24.6487V57.6477C26.1477 57.8826 27.6627 58.0004 29.1799 58C30.6972 58.0005 32.2122 57.8827 33.7112 57.6477V37.3828H40.4684Z" fill="white"/>
</g>
<defs>
<clipPath id="clip0_214_316">
<rect width="58" height="58" fill="white" transform="translate(0.179932)"/>
</clipPath>
</defs>
</svg>
