<svg width="62" height="58" viewBox="0 0 62 58" fill="none" xmlns="http://www.w3.org/2000/svg">
<ellipse cx="30.6799" cy="29" rx="30.5" ry="29" fill="#0A66C2"/>
<path d="M43.6033 48H50.1078C50.3435 48 50.5695 47.9109 50.7362 47.7523C50.9029 47.5937 50.9966 47.3786 50.9967 47.1543L51 34.0759C51 27.2402 49.4522 21.9859 41.0582 21.9859C37.8673 21.873 34.8582 23.4384 33.2344 26.0523C33.2265 26.065 33.2144 26.0748 33.2 26.0804C33.1856 26.0859 33.1697 26.0869 33.1548 26.083C33.1398 26.0791 33.1265 26.0707 33.117 26.059C33.1076 26.0473 33.1023 26.033 33.1022 26.0182V23.4629C33.1022 23.2385 33.0086 23.0234 32.8419 22.8647C32.6752 22.7061 32.4491 22.617 32.2133 22.617H26.0407C25.8049 22.617 25.5788 22.7061 25.4121 22.8647C25.2454 23.0234 25.1518 23.2385 25.1518 23.4629V47.153C25.1518 47.3774 25.2454 47.5925 25.4121 47.7512C25.5788 47.9098 25.8049 47.9989 26.0407 47.9989H32.5447C32.7804 47.9989 33.0065 47.9098 33.1732 47.7512C33.3399 47.5925 33.4336 47.3774 33.4336 47.153V35.4427C33.4336 32.1315 34.0936 28.9248 38.4071 28.9248C42.6593 28.9248 42.7144 32.7137 42.7144 35.6571V47.1541C42.7144 47.3784 42.8081 47.5936 42.9748 47.7522C43.1415 47.9109 43.3676 48 43.6033 48ZM11 14.5739C11 17.0829 13.1704 19.1474 15.8071 19.1474C18.4431 19.1472 20.6122 17.0814 20.6122 14.5729C20.6118 12.0643 18.4424 10 15.8062 10C13.1693 10 11 12.0649 11 14.5739ZM12.5464 48H19.0591C19.2949 48 19.521 47.9109 19.6877 47.7522C19.8544 47.5936 19.948 47.3784 19.948 47.1541V23.4629C19.948 23.2385 19.8544 23.0234 19.6877 22.8647C19.521 22.7061 19.2949 22.617 19.0591 22.617H12.5464C12.3107 22.617 12.0846 22.7061 11.9179 22.8647C11.7512 23.0234 11.6576 23.2385 11.6576 23.4629V47.1541C11.6576 47.3784 11.7512 47.5936 11.9179 47.7522C12.0846 47.9109 12.3107 48 12.5464 48Z" fill="#FFFBF6"/>
</svg>
