<svg xmlns="http://www.w3.org/2000/svg" xmlns:xlink="http://www.w3.org/1999/xlink" width="500" zoomAndPan="magnify" viewBox="0 0 375 374.999991" height="500" preserveAspectRatio="xMidYMid meet" version="1.0"><defs><clipPath id="6d3c4edc6f"><path d="M 0 120.808594 L 375 120.808594 L 375 301.097656 L 0 301.097656 Z M 0 120.808594 " clip-rule="nonzero"/></clipPath><clipPath id="823b25d84a"><path d="M 125.066406 290.269531 C 144.292969 296.808594 166.148438 301.097656 187.601562 301.097656 C 209.054688 301.097656 229.695312 297.421875 248.71875 290.882812 C 249.125 290.679688 249.527344 290.679688 249.933594 290.472656 C 321.371094 264.324219 373.988281 195.265625 375 120.808594 L 0 120.808594 C 1.011719 195.675781 52.820312 264.730469 125.066406 290.269531 Z M 125.066406 290.269531 " clip-rule="nonzero"/></clipPath><clipPath id="ea85b0f2a5"><path d="M 0 120.808594 L 375 120.808594 L 375 160.453125 L 0 160.453125 Z M 0 120.808594 " clip-rule="nonzero"/></clipPath></defs><g clip-path="url(#6d3c4edc6f)"><g clip-path="url(#823b25d84a)"><path fill="#bc1823" d="M 0 120.808594 L 374.660156 120.808594 L 374.660156 301.097656 L 0 301.097656 Z M 0 120.808594 " fill-opacity="1" fill-rule="nonzero"/></g></g><g clip-path="url(#ea85b0f2a5)"><path fill="#ffffff" d="M 0 120.808594 L 375.058594 120.808594 L 375.058594 160.453125 L 0 160.453125 Z M 0 120.808594 " fill-opacity="1" fill-rule="nonzero"/></g></svg>