<svg width="105" height="30" viewBox="0 0 105 30" fill="none" xmlns="http://www.w3.org/2000/svg">
<g clip-path="url(#clip0_2558_3796)">
<mask id="mask0_2558_3796" style="mask-type:luminance" maskUnits="userSpaceOnUse" x="85" y="3" width="17" height="28">
<path d="M101.264 3.39136H85.8784V30.0731H101.264V3.39136Z" fill="white"/>
</mask>
<g mask="url(#mask0_2558_3796)">
<path d="M96.4331 11.5773L85.967 22.0486L81.7461 26.2695L81.6105 26.1704L80.9322 26.8434L80.52 26.7599V25.9565L80.8539 25.5912L85.967 19.9773L94.9565 10.0956L96.4018 11.546L96.4331 11.5773Z" fill="#008C00"/>
<path d="M99.4328 14.5721L85.9563 27.8608L83.5928 27.3861L97.8989 13.0747L97.3615 12.5582H97.4136L99.4328 14.5721Z" fill="#008C00"/>
<path d="M99.1826 8.82771L99.1722 8.83815L96.4331 11.5773L85.967 22.0486L81.7461 26.2695L81.6105 26.1703L80.8539 25.5912L80.52 25.346V24.266L85.967 18.8921L97.6487 7.36684L97.6852 7.33032L99.1826 8.82771Z" fill="#FF9400"/>
<path d="M98.4205 12.5582L97.9196 13.0591L97.8987 13.0747L97.3613 12.5582H98.4205Z" fill="white"/>
<path d="M99.579 9.21384V9.23471L99.1721 8.83819L96.4382 11.5773L81.746 26.2695L81.6104 26.1704L96.4017 11.546L99.1564 8.82254L99.1721 8.80688L99.579 9.21384Z" fill="white"/>
<path d="M99.579 6.76172V9.23476L99.172 8.83824L99.1564 8.82259L97.6485 7.36694L97.0225 6.76172H99.579Z" fill="#FF9400"/>
<path d="M99.9231 12.5582V15.0208L98.8222 13.9669L97.8987 13.0747L97.3613 12.5582H99.9231Z" fill="#008C00"/>
</g>
<path d="M4.1428 12.4856H7.56123V28H4.1428V12.4856ZM10.2543 17.3503H13.4098V18.7965H13.4536C13.5559 18.592 13.702 18.3875 13.8919 18.183C14.0818 17.9784 14.3082 17.7958 14.5712 17.6351C14.8341 17.4744 15.1336 17.343 15.4696 17.2407C15.8056 17.1384 16.1708 17.0873 16.5653 17.0873C17.398 17.0873 18.07 17.2188 18.5813 17.4817C19.0926 17.7301 19.487 18.0807 19.7646 18.5336C20.0567 18.9864 20.254 19.5197 20.3562 20.1332C20.4585 20.7468 20.5096 21.4115 20.5096 22.1273V28H17.2227V22.7847C17.2227 22.4779 17.2081 22.1638 17.1788 21.8424C17.1642 21.5064 17.0985 21.1997 16.9816 20.9221C16.8794 20.6445 16.7114 20.4181 16.4776 20.2428C16.2585 20.0675 15.9371 19.9798 15.5134 19.9798C15.0898 19.9798 14.7465 20.0602 14.4835 20.2209C14.2206 20.367 14.0161 20.5715 13.87 20.8344C13.7385 21.0828 13.6508 21.3677 13.607 21.689C13.5632 22.0104 13.5413 22.3464 13.5413 22.697V28H10.2543V17.3503ZM34.0128 28H30.9888V26.5976H30.945C30.8135 26.7875 30.6382 26.9847 30.4191 27.1892C30.2146 27.3791 29.9662 27.5544 29.6741 27.7151C29.3965 27.8758 29.0824 28.0073 28.7318 28.1096C28.3958 28.2118 28.0452 28.263 27.68 28.263C26.8911 28.263 26.1753 28.1315 25.5325 27.8685C24.8897 27.591 24.3346 27.2111 23.8671 26.729C23.4142 26.2323 23.0636 25.648 22.8153 24.976C22.5669 24.304 22.4428 23.5663 22.4428 22.7628C22.4428 22.0177 22.5523 21.3092 22.7715 20.6372C23.0052 19.9506 23.3266 19.3443 23.7356 18.8184C24.1593 18.2925 24.6706 17.8762 25.2695 17.5694C25.8685 17.248 26.5478 17.0873 27.3075 17.0873C27.9941 17.0873 28.6295 17.1969 29.2139 17.416C29.8128 17.6205 30.3022 17.9784 30.6821 18.4897H30.7259V11.4337H34.0128V28ZM30.9888 22.6751C30.9888 21.8717 30.7551 21.2216 30.2876 20.7249C29.8348 20.2282 29.192 19.9798 28.3593 19.9798C27.5266 19.9798 26.8765 20.2282 26.409 20.7249C25.9562 21.2216 25.7297 21.8717 25.7297 22.6751C25.7297 23.4786 25.9562 24.1287 26.409 24.6254C26.8765 25.1221 27.5266 25.3704 28.3593 25.3704C29.192 25.3704 29.8348 25.1221 30.2876 24.6254C30.7551 24.1287 30.9888 23.4786 30.9888 22.6751ZM36.6837 17.3503H39.9706V28H36.6837V17.3503ZM36.4207 13.9976C36.4207 13.4717 36.6033 13.0261 36.9685 12.6609C37.3484 12.281 37.8012 12.0911 38.3272 12.0911C38.8531 12.0911 39.2986 12.281 39.6638 12.6609C40.0437 13.0261 40.2336 13.4717 40.2336 13.9976C40.2336 14.5235 40.0437 14.9763 39.6638 15.3562C39.2986 15.7214 38.8531 15.904 38.3272 15.904C37.8012 15.904 37.3484 15.7214 36.9685 15.3562C36.6033 14.9763 36.4207 14.5235 36.4207 13.9976ZM41.2145 17.3503H44.7644L47.4598 24.5816H47.5036L50.0017 17.3503H53.3105L49.1032 28H45.6191L41.2145 17.3503ZM64.5884 26.1593C64.0625 26.8313 63.3978 27.3499 62.5943 27.7151C61.7908 28.0803 60.9581 28.263 60.0962 28.263C59.2781 28.263 58.5039 28.1315 57.7734 27.8685C57.0576 27.6056 56.4294 27.233 55.8889 26.751C55.363 26.2543 54.9467 25.6626 54.6399 24.976C54.3331 24.2894 54.1797 23.5224 54.1797 22.6751C54.1797 21.8278 54.3331 21.0609 54.6399 20.3743C54.9467 19.6877 55.363 19.1033 55.8889 18.6212C56.4294 18.1245 57.0576 17.7447 57.7734 17.4817C58.5039 17.2188 59.2781 17.0873 60.0962 17.0873C60.8559 17.0873 61.5425 17.2188 62.156 17.4817C62.7842 17.7447 63.3101 18.1245 63.7338 18.6212C64.172 19.1033 64.508 19.6877 64.7418 20.3743C64.9755 21.0609 65.0924 21.8278 65.0924 22.6751V23.705H57.4667C57.5981 24.3332 57.883 24.8372 58.3213 25.217C58.7595 25.5823 59.3 25.7649 59.9428 25.7649C60.4833 25.7649 60.9362 25.648 61.3014 25.4143C61.6813 25.1659 62.01 24.8518 62.2875 24.472L64.5884 26.1593ZM61.8054 21.4699C61.82 20.9148 61.6374 20.44 61.2576 20.0456C60.8778 19.6511 60.3884 19.4539 59.7894 19.4539C59.4242 19.4539 59.1028 19.5123 58.8253 19.6292C58.5477 19.7461 58.3067 19.8995 58.1021 20.0894C57.9122 20.2647 57.7588 20.4765 57.642 20.7249C57.5397 20.9586 57.4813 21.207 57.4667 21.4699H61.8054ZM73.1174 20.4838C72.6353 19.8849 71.9998 19.5854 71.2109 19.5854C70.9334 19.5854 70.6631 19.6511 70.4001 19.7826C70.1372 19.9141 70.0057 20.1405 70.0057 20.4619C70.0057 20.7249 70.1372 20.9221 70.4001 21.0536C70.6777 21.1704 71.021 21.28 71.4301 21.3823C71.8537 21.4699 72.2993 21.5722 72.7668 21.689C73.2488 21.7913 73.6944 21.9593 74.1034 22.193C74.5271 22.4268 74.8704 22.7482 75.1334 23.1572C75.4109 23.5517 75.5497 24.0849 75.5497 24.7569C75.5497 25.4435 75.3963 26.0132 75.0895 26.4661C74.7974 26.9043 74.4175 27.2623 73.9501 27.5398C73.4826 27.8028 72.9567 27.9854 72.3723 28.0877C71.788 28.2045 71.2109 28.263 70.6412 28.263C69.8961 28.263 69.1438 28.1607 68.3841 27.9562C67.6245 27.737 66.9817 27.3572 66.4558 26.8167L68.4499 24.6035C68.7567 24.9833 69.0927 25.2755 69.4579 25.48C69.8377 25.6699 70.276 25.7649 70.7727 25.7649C71.1525 25.7649 71.4958 25.7137 71.8026 25.6115C72.1094 25.4946 72.2628 25.2901 72.2628 24.9979C72.2628 24.7203 72.124 24.5158 71.8464 24.3843C71.5834 24.2383 71.2401 24.1214 70.8165 24.0337C70.4074 23.9315 69.9619 23.8292 69.4798 23.727C69.0123 23.6101 68.5668 23.4421 68.1431 23.223C67.7341 23.0038 67.3908 22.697 67.1132 22.3026C66.8502 21.8936 66.7188 21.353 66.7188 20.681C66.7188 20.0529 66.8429 19.5123 67.0913 19.0595C67.3542 18.6066 67.6902 18.2341 68.0993 17.9419C68.5229 17.6497 69.005 17.4379 69.5455 17.3064C70.0861 17.1603 70.6339 17.0873 71.189 17.0873C71.8902 17.0873 72.5988 17.1896 73.3146 17.3941C74.0304 17.5986 74.6367 17.9638 75.1334 18.4897L73.1174 20.4838ZM84.4878 19.9798H81.5953V23.5297C81.5953 23.8219 81.6099 24.0922 81.6391 24.3405C81.6684 24.5743 81.7341 24.7788 81.8364 24.9541C81.9386 25.1294 82.092 25.2682 82.2965 25.3704C82.5157 25.4581 82.8005 25.5019 83.1511 25.5019C83.3264 25.5019 83.5529 25.4873 83.8304 25.4581C84.1226 25.4143 84.3417 25.3266 84.4878 25.1951V27.9343C84.1226 28.0657 83.7428 28.1534 83.3484 28.1972C82.9539 28.241 82.5668 28.263 82.187 28.263C81.6318 28.263 81.1205 28.2045 80.6531 28.0877C80.1856 27.9708 79.7765 27.7882 79.4259 27.5398C79.0753 27.2769 78.7977 26.9409 78.5932 26.5318C78.4033 26.1228 78.3084 25.6261 78.3084 25.0417V19.9798H76.2047V17.3503H78.3084V14.1948H81.5953V17.3503H84.4878V19.9798Z" fill="#0B008E"/>
</g>
<path d="M98.9005 1.10312H97.8317V0.68125H100.419V1.10312H99.3505V4H98.9005V1.10312ZM100.866 0.68125H101.536L102.591 3.19375H102.609L103.655 0.68125H104.325V4H103.875V1.27187H103.866L102.745 4H102.445L101.325 1.27187H101.316V4H100.866V0.68125Z" fill="#0B008E"/>
<defs>
<clipPath id="clip0_2558_3796">
<rect width="105" height="30" fill="white"/>
</clipPath>
</defs>
</svg>
