<svg width="30" height="36" viewBox="0 0 30 36" fill="none" xmlns="http://www.w3.org/2000/svg">
<path d="M18.75 15.4284C18.75 14.4054 18.3549 13.4243 17.6517 12.701C16.9484 11.9776 15.9946 11.5713 15 11.5713C14.0054 11.5713 13.0516 11.9776 12.3483 12.701C11.6451 13.4243 11.25 14.4054 11.25 15.4284C11.25 16.4513 11.6451 17.4324 12.3483 18.1557C13.0516 18.8791 14.0054 19.2855 15 19.2855C15.9946 19.2855 16.9484 18.8791 17.6517 18.1557C18.3549 17.4324 18.75 16.4513 18.75 15.4284ZM30 15.4284C30 22.8186 22.2575 30.8979 17.8975 34.863C17.1003 35.5952 16.0688 36 15 36C13.9312 36 12.8997 35.5952 12.1025 34.863C7.7425 30.8979 0 22.8186 0 15.4284C-2.93527e-08 13.4023 0.387986 11.396 1.14181 9.52419C1.89563 7.65233 3.00052 5.95152 4.3934 4.51886C5.78628 3.08621 7.43987 1.94976 9.25975 1.17441C11.0796 0.399067 13.0302 0 15 0C16.9698 0 18.9204 0.399067 20.7403 1.17441C22.5601 1.94976 24.2137 3.08621 25.6066 4.51886C26.9995 5.95152 28.1044 7.65233 28.8582 9.52419C29.612 11.396 30 13.4023 30 15.4284ZM27.5 15.4284C27.5 12.0185 26.183 8.74826 23.8388 6.33711C21.4946 3.92596 18.3152 2.57139 15 2.57139C11.6848 2.57139 8.50537 3.92596 6.16117 6.33711C3.81696 8.74826 2.5 12.0185 2.5 15.4284C2.5 18.2775 4.0375 21.5869 6.425 24.8988C8.76 28.1336 11.6425 31.011 13.7575 32.937C14.0978 33.2543 14.5407 33.43 15 33.43C15.4593 33.43 15.9022 33.2543 16.2425 32.937C18.3575 31.011 21.2425 28.1362 23.575 24.8988C25.9625 21.5869 27.5 18.2775 27.5 15.4284Z" fill="#131313"/>
</svg>
