<svg width="47" height="48" viewBox="0 0 47 48" fill="none" xmlns="http://www.w3.org/2000/svg">
<path d="M36.7608 8.57129C38.3189 8.57129 39.8132 9.20343 40.915 10.3286C42.0168 11.4539 42.6358 12.98 42.6358 14.5713V33.7713C42.6358 35.3626 42.0168 36.8887 40.915 38.0139C39.8132 39.1391 38.3189 39.7713 36.7608 39.7713H10.9108C9.35262 39.7713 7.85829 39.1391 6.75651 38.0139C5.65474 36.8887 5.03577 35.3626 5.03577 33.7713V14.5713C5.03577 12.98 5.65474 11.4539 6.75651 10.3286C7.85829 9.20343 9.35262 8.57129 10.9108 8.57129H36.7608ZM40.2858 18.0777L24.4327 27.6057C24.2828 27.6956 24.1153 27.7504 23.9421 27.7661C23.769 27.7819 23.5947 27.7582 23.4316 27.6969L23.2389 27.6057L7.38577 18.0825V33.7713C7.38577 34.7261 7.75715 35.6417 8.41822 36.3169C9.07928 36.992 9.97588 37.3713 10.9108 37.3713H36.7608C37.6957 37.3713 38.5923 36.992 39.2533 36.3169C39.9144 35.6417 40.2858 34.7261 40.2858 33.7713V18.0777ZM36.7608 10.9713H10.9108C9.97588 10.9713 9.07928 11.3506 8.41822 12.0257C7.75715 12.7008 7.38577 13.6165 7.38577 14.5713V15.2961L23.8358 25.1793L40.2858 15.2913V14.5713C40.2858 13.6165 39.9144 12.7008 39.2533 12.0257C38.5923 11.3506 37.6957 10.9713 36.7608 10.9713Z" fill="black"/>
</svg>
